<svg width="105" height="105" viewBox="0 0 105 105" fill="none" xmlns="http://www.w3.org/2000/svg">
<path d="M80.3906 0H24.6094C11.018 0 0 11.018 0 24.6094V80.3906C0 93.982 11.018 105 24.6094 105H80.3906C93.982 105 105 93.982 105 80.3906V24.6094C105 11.018 93.982 0 80.3906 0Z" fill="#764ABC"/>
<path d="M68.3234 67.9215C71.3508 67.6081 73.6473 64.9983 73.5427 61.8667C73.4385 58.7352 70.8287 56.23 67.6971 56.23H67.4883C64.2522 56.3341 61.747 59.0481 61.8512 62.2843C61.9557 63.8502 62.5821 65.207 63.5213 66.1467C59.9722 73.1407 54.5442 78.2558 46.4018 82.5357C40.8692 85.4585 35.1278 86.5024 29.3865 85.7719C24.689 85.1456 21.0357 83.0575 18.7388 79.613C15.3985 74.4979 15.0856 68.9653 17.9037 63.4327C19.8873 59.4657 23.0188 56.5429 25.0023 55.0815C24.5848 53.7247 23.9585 51.4278 23.6451 49.7577C8.5091 60.7187 10.0747 75.5417 14.6676 82.5357C18.1129 87.755 25.1065 90.9911 32.8314 90.9911C34.9191 90.9911 37.0068 90.7823 39.0945 90.2602C52.4565 87.6508 62.5821 79.7171 68.3234 67.9215Z" fill="white"/>
<path d="M86.6955 54.9773C78.7623 45.6865 67.0708 40.5718 53.7091 40.5718H52.039C51.0993 38.6925 49.1158 37.4399 46.9239 37.4399H46.7152C43.479 37.5445 40.9738 40.2585 41.078 43.4946C41.1826 46.6262 43.792 49.1314 46.9239 49.1314H47.1327C49.4292 49.0272 51.4127 47.5658 52.2477 45.5823H54.1267C62.0599 45.5823 69.576 47.8788 76.3612 52.3675C81.5805 55.8124 85.3387 60.3012 87.4264 65.7292C89.2012 70.1133 89.0966 74.3933 87.2177 78.047C84.2949 83.5796 79.3886 86.607 72.9163 86.607C68.7409 86.607 64.7743 85.3543 62.6862 84.4147C61.5382 85.4585 59.4505 87.1287 57.9891 88.1725C62.4775 90.2602 67.0708 91.4087 71.455 91.4087C81.4763 91.4087 88.8878 85.8761 91.7064 80.3435C94.7338 74.2891 94.525 63.8502 86.6955 54.9773Z" fill="white"/>
<path d="M33.6664 69.6962C33.771 72.8278 36.3804 75.333 39.5124 75.333H39.7212C42.9569 75.2284 45.4625 72.5144 45.3579 69.2783C45.2538 66.1467 42.6439 63.6415 39.5124 63.6415H39.3032C39.0949 63.6415 38.7815 63.6415 38.5731 63.7461C34.2927 56.6475 32.5184 48.9226 33.1447 40.5718C33.5623 34.3087 35.65 28.8803 39.3036 24.3912C42.3306 20.5291 48.1765 18.6502 52.1432 18.5456C63.2084 18.3369 67.9059 32.1161 68.2188 37.6487C69.576 37.962 71.8725 38.6929 73.4385 39.2146C72.1859 22.3043 61.747 13.5352 51.7256 13.5352C42.3306 13.5352 33.6664 20.3204 30.2215 30.3417C25.4198 43.7034 28.5514 56.5429 34.3969 66.6688C33.8752 67.3993 33.5619 68.5478 33.6664 69.6962Z" fill="white"/>
</svg>
